<svg width="512" height="512" viewBox="0 0 512 512" fill="none" xmlns="http://www.w3.org/2000/svg">
<rect width="512" height="512" rx="256" fill="url(#paint0_angular_15_95)"/>
<path d="M80.15 281.9H116.15C118.35 288.7 122.85 294.3 129.65 298.7C136.65 302.9 145.75 305 156.95 305C164.55 305 170.45 304.3 174.65 302.9C178.85 301.5 181.75 299.5 183.35 296.9C184.95 294.1 185.75 291 185.75 287.6C185.75 283.4 184.45 280.2 181.85 278C179.25 275.6 175.25 273.7 169.85 272.3C164.45 270.9 157.55 269.6 149.15 268.4C140.75 267 132.65 265.3 124.85 263.3C117.05 261.3 110.15 258.7 104.15 255.5C98.15 252.1 93.35 247.9 89.75 242.9C86.35 237.7 84.65 231.4 84.65 224C84.65 216.8 86.35 210.4 89.75 204.8C93.35 199.2 98.25 194.5 104.45 190.7C110.85 186.9 118.25 184 126.65 182C135.25 180 144.45 179 154.25 179C169.05 179 181.35 181.2 191.15 185.6C200.95 189.8 208.25 195.8 213.05 203.6C218.05 211.2 220.55 220 220.55 230H186.05C184.45 222.6 181.25 217.3 176.45 214.1C171.65 210.7 164.25 209 154.25 209C144.45 209 137.05 210.5 132.05 213.5C127.05 216.5 124.55 220.6 124.55 225.8C124.55 230 126.05 233.3 129.05 235.7C132.25 237.9 136.85 239.7 142.85 241.1C149.05 242.5 156.75 244 165.95 245.6C173.75 247.2 181.15 249 188.15 251C195.35 253 201.75 255.6 207.35 258.8C212.95 261.8 217.35 265.9 220.55 271.1C223.95 276.1 225.65 282.5 225.65 290.3C225.65 299.9 222.85 308 217.25 314.6C211.85 321.2 204.05 326.3 193.85 329.9C183.65 333.3 171.45 335 157.25 335C144.65 335 133.75 333.7 124.55 331.1C115.55 328.3 108.05 324.8 102.05 320.6C96.05 316.2 91.35 311.6 87.95 306.8C84.75 301.8 82.55 297.1 81.35 292.7C80.15 288.3 79.75 284.7 80.15 281.9Z" fill="white"/>
<path d="M329.886 308.6C313.686 308.6 299.386 306.2 286.986 301.4C274.786 296.4 265.286 289.1 258.486 279.5C251.686 269.9 248.286 258.3 248.286 244.7C248.286 231.3 251.586 219.7 258.186 209.9C264.786 200.1 274.186 192.5 286.386 187.1C298.786 181.7 313.286 179 329.886 179C334.486 179 338.886 179.3 343.086 179.9C347.486 180.5 351.786 181.3 355.986 182.3L431.286 182.6V212C421.086 212.2 410.686 211 400.086 208.4C389.686 205.6 380.486 202.6 372.486 199.4L371.586 197.3C378.386 200.5 384.786 204.5 390.786 209.3C396.786 213.9 401.586 219.3 405.186 225.5C408.986 231.5 410.886 238.5 410.886 246.5C410.886 259.5 407.586 270.7 400.986 280.1C394.386 289.3 384.986 296.4 372.786 301.4C360.786 306.2 346.486 308.6 329.886 308.6ZM379.986 392.9V385.7C379.986 376.5 376.986 370.1 370.986 366.5C365.186 362.9 357.186 361.1 346.986 361.1H300.486C291.486 361.1 283.886 360.4 277.686 359C271.686 357.6 266.886 355.6 263.286 353C259.686 350.4 257.086 347.3 255.486 343.7C253.886 340.3 253.086 336.6 253.086 332.6C253.086 324.6 255.686 318.6 260.886 314.6C266.086 310.4 273.086 307.6 281.886 306.2C290.686 304.8 300.386 304.5 310.986 305.3L329.886 308.6C317.286 309 307.886 310.1 301.686 311.9C295.686 313.5 292.686 316.8 292.686 321.8C292.686 324.8 293.886 327.2 296.286 329C298.686 330.6 302.086 331.4 306.486 331.4H355.386C368.786 331.4 380.186 332.8 389.586 335.6C399.186 338.6 406.486 343.5 411.486 350.3C416.486 357.3 418.986 366.8 418.986 378.8V392.9H379.986ZM329.886 280.4C338.486 280.4 345.986 279 352.386 276.2C358.986 273.4 364.086 269.4 367.686 264.2C371.286 258.8 373.086 252.4 373.086 245C373.086 237.4 371.286 230.9 367.686 225.5C364.086 220.1 359.086 216 352.686 213.2C346.286 210.2 338.686 208.7 329.886 208.7C321.286 208.7 313.686 210.2 307.086 213.2C300.486 216 295.386 220.1 291.786 225.5C288.186 230.9 286.386 237.4 286.386 245C286.386 252.4 288.186 258.8 291.786 264.2C295.386 269.4 300.386 273.4 306.786 276.2C313.386 279 321.086 280.4 329.886 280.4Z" fill="white"/>
<defs>
<radialGradient id="paint0_angular_15_95" cx="0" cy="0" r="1" gradientUnits="userSpaceOnUse" gradientTransform="translate(256 256) rotate(-55.0486) scale(346.494)">
<stop stop-color="#4D26E0"/>
<stop offset="1" stop-color="#3C1AB7"/>
</radialGradient>
</defs>
</svg>
