<svg width="148" height="60" viewBox="0 0 148 60" fill="none" xmlns="http://www.w3.org/2000/svg">
<g clip-path="url(#clip0_67_2)">
<path d="M12.1726 28.5C9.47715 28.5 6.73853 29.6797 5.51712 31.5783L4.97039 28.8378H0V60H0.0581624L6.0223 57.4659V48.825C6.69698 50.4274 9.64499 51.5655 11.8352 51.5655C16.1725 51.5655 21.2692 48.1079 21.2692 40.0111C21.2692 31.9144 16.3835 28.5 12.1726 28.5V28.5ZM10.5291 46.5904C8.17098 46.5904 5.51712 44.6918 5.51712 40.0111C5.51712 35.0776 8.46512 33.4336 10.5291 33.4336C12.804 33.4336 15.4562 35.204 15.4562 40.0111C15.4562 44.8183 12.8456 46.5904 10.5291 46.5904V46.5904Z" fill="#0F172A"/>
<path d="M32.1174 56.5906L36.5493 44.4904L42.2825 28.8378H35.9245L31.2915 44.1859L26.3211 28.8378H20.0046L27.4444 48.3591L28.5545 51.271L28.5961 51.3559L25.2343 59.5158L32.1174 56.5906Z" fill="#0F172A"/>
<path d="M55.9272 28.2471C53.2318 28.2471 50.3685 29.6797 49.4845 31.2821L48.7682 28.8378H44.2615V51.271H50.1575V37.8613C50.1575 34.9511 51.9273 33.2223 54.2438 33.2223C56.685 33.2223 58.2022 34.8679 58.2022 37.8613V51.271H64.1397V37.5668C64.1397 30.9876 60.3924 28.2471 55.9272 28.2471Z" fill="#0F172A"/>
<path d="M77.2794 28.4152C71.8471 28.4152 66.4978 31.7464 66.4978 40.0544C66.4978 48.3625 71.8039 51.692 77.2794 51.692C82.4343 51.692 87.4064 48.5621 88.0345 41.5803C88.0794 41.0911 88.1026 40.5819 88.1026 40.0544C88.1026 31.8312 82.9229 28.4152 77.2794 28.4152V28.4152ZM81.4223 44.3923C80.5133 46.0479 79.0077 46.7584 77.2794 46.7584C74.373 46.7584 72.226 44.7767 72.226 40.0544C72.226 35.3322 74.2899 33.392 77.2794 33.392C80.269 33.392 82.3329 35.2889 82.3329 40.0544C82.3329 41.918 81.9972 43.344 81.4223 44.3923V44.3923Z" fill="#0F172A"/>
<path d="M104.021 28.8378L101.751 35.7514L98.9258 44.3557L96.9018 37.8131L94.1249 28.8378H87.8916L91.948 39.9179L96.1041 51.271H101.663L108.704 32.7963L110.213 28.8378H104.021V28.8378Z" fill="#0F172A"/>
<path d="M112.318 31.2588V51.271H117.96V28.8611L112.318 31.2588V31.2588Z" fill="#0F172A"/>
<path d="M125.8 6.89539C123.291 11.7807 118.207 15.1336 112.353 15.1336V20.558C118.905 20.558 124.752 17.4681 128.512 12.6676C127.359 10.8955 126.438 8.95701 125.799 6.89539H125.8Z" fill="#1727BA"/>
<path d="M131.839 23.0572C132.992 24.8292 133.913 26.7677 134.553 28.8294C137.062 23.944 142.145 20.5912 148 20.5912V15.1667C141.448 15.1667 135.601 18.2567 131.841 23.0572H131.839Z" fill="#1727BA"/>
<path d="M148 20.558C136.678 20.558 127.469 11.3348 127.469 0H132.886C132.886 8.34466 139.666 15.1335 148 15.1335V20.558V20.558Z" fill="#3538F8"/>
<path d="M132.886 35.7247H127.469C127.469 27.3801 120.689 20.5912 112.355 20.5912V15.1667C123.676 15.1667 132.886 24.39 132.886 35.7247V35.7247Z" fill="#3538F8"/>
</g>
<defs>
<clipPath id="clip0_67_2">
<rect width="148" height="60" fill="white"/>
</clipPath>
</defs>
</svg>
