<svg width="512" height="512" viewBox="0 0 512 512" fill="none" xmlns="http://www.w3.org/2000/svg">
<rect width="512" height="512" rx="256" fill="#15303D"/>
<path d="M337.861 227.493V301.205C337.861 307.592 330.585 311.152 325.506 307.278L176.984 193.517C175.099 192.051 174 189.8 174 187.444V113.68C174 107.293 181.277 103.733 186.355 107.607L334.825 221.421C336.762 222.886 337.861 225.138 337.861 227.493Z" fill="#39B54A"/>
<path d="M308.283 347.693L184.942 405.28C179.863 407.636 174 403.919 174 398.318V246.183C174 239.796 181.277 236.236 186.355 240.11L309.696 334.658C314.303 338.165 313.518 345.285 308.283 347.693Z" fill="white"/>
</svg>
